<svg width="120" height="25" viewBox="0 0 120 25" fill="none" xmlns="http://www.w3.org/2000/svg">
<path d="M34.4267 6.79351C33.0056 6.79351 31.9194 7.324 31.168 8.38498C30.4166 9.44596 30.0409 10.8987 30.0409 12.7432C30.0409 14.604 30.384 16.0485 31.07 17.0769C31.7724 18.0889 32.8913 18.5949 34.4267 18.5949C35.129 18.5949 35.8396 18.5133 36.5583 18.3501C37.277 18.1868 38.0528 17.9583 38.8859 17.6645V20.774C38.1182 21.0841 37.3586 21.3126 36.6073 21.4595C35.8559 21.6065 35.0147 21.6799 34.0836 21.6799C32.2706 21.6799 30.7841 21.3126 29.6244 20.5781C28.4647 19.8273 27.6072 18.7826 27.0518 17.4441C26.4964 16.0893 26.2188 14.5142 26.2188 12.7187C26.2188 10.9558 26.5373 9.39699 27.1743 8.0422C27.8113 6.68741 28.7342 5.62643 29.9429 4.85925C31.168 4.09208 32.6626 3.7085 34.4267 3.7085C35.2924 3.7085 36.1581 3.82276 37.0238 4.05127C37.9058 4.26347 38.747 4.55728 39.5474 4.93271L38.3469 7.94426C37.6935 7.63413 37.032 7.3648 36.3623 7.13628C35.7089 6.90777 35.0637 6.79351 34.4267 6.79351Z" fill="white"/>
<path d="M54.4618 14.7264C54.4618 16.9463 53.8737 18.6602 52.6977 19.8681C51.538 21.076 49.9535 21.6799 47.9444 21.6799C46.7031 21.6799 45.5923 21.4106 44.6123 20.8719C43.6486 20.3333 42.889 19.5498 42.3337 18.5214C41.7783 17.4768 41.5006 16.2118 41.5006 14.7264C41.5006 12.5065 42.0805 10.8008 43.2402 9.60919C44.3999 8.41762 45.9925 7.82184 48.018 7.82184C49.2757 7.82184 50.3864 8.09117 51.3501 8.62982C52.3138 9.16848 53.0734 9.95197 53.6287 10.9803C54.1841 12.0086 54.4618 13.2573 54.4618 14.7264ZM45.2248 14.7264C45.2248 16.0485 45.4372 17.0524 45.8618 17.7379C46.3029 18.4072 47.0134 18.7418 47.9934 18.7418C48.9572 18.7418 49.6514 18.4072 50.0761 17.7379C50.5171 17.0524 50.7376 16.0485 50.7376 14.7264C50.7376 13.4042 50.5171 12.4167 50.0761 11.7638C49.6514 11.0946 48.949 10.7599 47.9689 10.7599C47.0052 10.7599 46.3029 11.0946 45.8618 11.7638C45.4372 12.4167 45.2248 13.4042 45.2248 14.7264Z" fill="white"/>
<path d="M64.9517 7.82184C65.1314 7.82184 65.3438 7.83 65.5888 7.84633C65.8338 7.86265 66.0298 7.88713 66.1768 7.91978L65.9073 11.3476C65.7766 11.3149 65.6051 11.2904 65.3928 11.2741C65.1804 11.2415 64.9926 11.2251 64.8292 11.2251C64.2085 11.2251 63.6123 11.3394 63.0406 11.5679C62.469 11.7801 62.0034 12.1311 61.6441 12.6207C61.3011 13.1104 61.1296 13.7797 61.1296 14.6285V21.4351H57.4789V8.06669H60.2475L60.7865 10.3192H60.958C61.3501 9.63368 61.8891 9.04605 62.5751 8.55637C63.2612 8.06668 64.0534 7.82184 64.9517 7.82184Z" fill="white"/>
<path d="M73.6392 7.82184C75.4849 7.82184 76.9468 8.35233 78.0249 9.41332C79.1029 10.458 79.642 11.9515 79.642 13.8939V15.6568H71.0175C71.0502 16.6851 71.3524 17.4931 71.9241 18.0807C72.5121 18.6683 73.3206 18.9622 74.3497 18.9622C75.1991 18.9622 75.9749 18.8805 76.6773 18.7173C77.396 18.5378 78.131 18.2684 78.8824 17.9093V20.725C78.2127 21.0515 77.5185 21.2882 76.7998 21.4351C76.0811 21.5983 75.2072 21.6799 74.1782 21.6799C72.8388 21.6799 71.6546 21.4351 70.6255 20.9454C69.5965 20.4394 68.7879 19.6885 68.1999 18.6928C67.6119 17.6808 67.3178 16.3995 67.3178 14.8488C67.3178 13.2981 67.5792 12.0005 68.1019 10.9558C68.6409 9.91116 69.3841 9.12767 70.3315 8.60534C71.2789 8.08301 72.3814 7.82184 73.6392 7.82184ZM73.6637 10.4172C72.9449 10.4172 72.3569 10.6457 71.8996 11.1027C71.4422 11.5598 71.1727 12.2698 71.091 13.2329H76.2118C76.1954 12.433 75.9749 11.7638 75.5502 11.2251C75.1419 10.6865 74.513 10.4172 73.6637 10.4172Z" fill="white"/>
<path d="M94.8773 8.06669V21.4351H92.0842L91.5941 19.7212H91.3981C90.9734 20.4067 90.3854 20.9046 89.634 21.2147C88.899 21.5248 88.115 21.6799 87.2819 21.6799C85.8445 21.6799 84.693 21.2963 83.8273 20.5291C82.9615 19.7457 82.5287 18.497 82.5287 16.7831V8.06669H86.1794V15.8771C86.1794 16.8402 86.3509 17.5666 86.6939 18.0562C87.0369 18.5296 87.5841 18.7663 88.3355 18.7663C89.4462 18.7663 90.2057 18.3909 90.6141 17.64C91.0224 16.8728 91.2266 15.7792 91.2266 14.3591V8.06669H94.8773Z" fill="white"/>
<path d="M114.41 7.82184C115.929 7.82184 117.073 8.21359 117.841 8.99709C118.625 9.76426 119.017 11.0048 119.017 12.7187V21.4351H115.366V13.6246C115.366 11.6985 114.696 10.7355 113.357 10.7355C112.393 10.7355 111.707 11.0782 111.299 11.7638C110.89 12.4494 110.686 13.4369 110.686 14.7264V21.4351H107.035V13.6246C107.035 11.6985 106.366 10.7355 105.026 10.7355C104.014 10.7355 103.311 11.1191 102.919 11.8862C102.544 12.6371 102.356 13.7225 102.356 15.1426V21.4351H98.7051V8.06669H101.498L101.988 9.78058H102.184C102.593 9.09502 103.148 8.59718 103.85 8.28704C104.569 7.97691 105.312 7.82184 106.08 7.82184C107.06 7.82184 107.885 7.98507 108.555 8.31153C109.241 8.62166 109.771 9.11134 110.147 9.78058H110.466C110.874 9.09502 111.438 8.59718 112.156 8.28704C112.891 7.97691 113.643 7.82184 114.41 7.82184Z" fill="white"/>
<path d="M8.48633 9.5C7.89299 9.5 7.31297 9.67595 6.81962 10.0056C6.32627 10.3352 5.94175 10.8038 5.71469 11.3519C5.48763 11.9001 5.42822 12.5033 5.54397 13.0853C5.65973 13.6672 5.94545 14.2018 6.36501 14.6213C6.78457 15.0409 7.31911 15.3266 7.90106 15.4424C8.483 15.5581 9.0862 15.4987 9.63438 15.2716C10.1826 15.0446 10.6511 14.6601 10.9807 14.1667C11.3104 13.6734 11.4863 13.0933 11.4863 12.5C11.4863 11.7043 11.1703 10.9413 10.6076 10.3787C10.045 9.81607 9.28198 9.5 8.48633 9.5Z" fill="#25D695"/>
<path d="M8.4855 0.500009C6.90933 0.498069 5.34832 0.80755 3.89211 1.41068C2.43591 2.0138 1.11321 2.89869 0 4.01451L4.245 8.25951C5.08387 7.41979 6.15296 6.84774 7.31701 6.61574C8.48106 6.38374 9.68777 6.5022 10.7845 6.95615C11.8812 7.4101 12.8186 8.17913 13.4782 9.16596C14.1377 10.1528 14.4898 11.3131 14.4898 12.5C14.4898 13.6869 14.1377 14.8472 13.4782 15.8341C12.8186 16.8209 11.8812 17.5899 10.7845 18.0439C9.68777 18.4978 8.48106 18.6163 7.31701 18.3843C6.15296 18.1523 5.08387 17.5802 4.245 16.7405L0 20.9855C1.39543 22.3809 3.11343 23.4105 5.00185 23.9833C6.89027 24.5562 8.89081 24.6544 10.8263 24.2694C12.7617 23.8844 14.5724 23.028 16.0978 21.7761C17.6232 20.5242 18.8164 18.9154 19.5716 17.0923C20.3268 15.2691 20.6207 13.2878 20.4273 11.324C20.2339 9.36008 19.5591 7.4742 18.4628 5.83337C17.3665 4.19254 15.8825 2.84741 14.1421 1.91712C12.4018 0.986821 10.4589 0.500081 8.4855 0.500009Z" fill="#25D695"/>
</svg>
